<svg width="22" height="22" viewBox="0 0 22 22" fill="none" xmlns="http://www.w3.org/2000/svg">
<g clip-path="url(#clip0_1601_114)">
<path fill-rule="evenodd" clip-rule="evenodd" d="M6.92779 1.06331C7.99314 1.01579 8.33373 1.00391 11.0427 1.00391C13.7516 1.00391 14.0922 1.01579 15.1615 1.05935C16.2268 1.10688 16.9516 1.27717 17.5852 1.52272C18.2387 1.78014 18.7971 2.12074 19.3516 2.67519C19.906 3.22965 20.2506 3.7841 20.504 4.44153C20.7496 5.07915 20.9199 5.80391 20.9674 6.86529C21.0149 7.93064 21.0268 8.26727 21.0268 10.9801C21.0268 13.693 21.0149 14.0296 20.9674 15.095C20.9199 16.1603 20.7496 16.8851 20.504 17.5188C20.2466 18.1722 19.906 18.7306 19.3516 19.2851C18.7971 19.8396 18.2427 20.1841 17.5852 20.4376C16.9476 20.6831 16.2229 20.8534 15.1615 20.9009C14.0961 20.9485 13.7595 20.9603 11.0466 20.9603C8.33373 20.9603 7.9971 20.9485 6.93175 20.9009C5.86641 20.8534 5.14166 20.6831 4.50799 20.4376C3.85453 20.1801 3.29611 19.8396 2.74166 19.2851C2.1872 18.7306 1.84265 18.1762 1.58918 17.5188C1.34363 16.8811 1.17334 16.1564 1.12581 15.095C1.07829 14.0296 1.06641 13.6891 1.06641 10.9801C1.06641 8.27123 1.07829 7.93064 1.12581 6.86925C1.17334 5.80391 1.34363 5.07915 1.58918 4.44549C1.84661 3.79203 2.1872 3.23361 2.74166 2.67915C3.29611 2.1247 3.85057 1.78014 4.50799 1.52668C5.14166 1.28113 5.86641 1.11084 6.92779 1.06331ZM15.0743 2.86133C14.0209 2.81381 13.708 2.80193 11.0427 2.80193C8.3773 2.80193 8.06443 2.80985 7.01096 2.86133C6.0367 2.9049 5.50997 3.07123 5.1575 3.20589C4.69017 3.3841 4.3575 3.60193 4.00898 3.95044C3.66047 4.29896 3.44661 4.63163 3.26443 5.09896C3.12581 5.45143 2.96344 5.97816 2.91987 6.95242C2.87235 8.00589 2.86047 8.31876 2.86047 10.9841C2.86047 13.6495 2.87235 13.9623 2.91987 15.0158C2.96344 15.99 3.12977 16.5168 3.26443 16.8693C3.44265 17.3366 3.66047 17.6693 4.00898 18.0178C4.3575 18.3663 4.69017 18.5801 5.1575 18.7623C5.50997 18.9009 6.0367 19.0633 7.01096 19.1069C8.06443 19.1544 8.3773 19.1663 11.0427 19.1663C13.708 19.1663 14.0209 19.1544 15.0743 19.1069C16.0486 19.0633 16.5753 18.897 16.9278 18.7623C17.3951 18.5841 17.7278 18.3663 18.0763 18.0178C18.4248 17.6693 18.6387 17.3366 18.8209 16.8693C18.9595 16.5168 19.1219 15.99 19.1654 15.0158C19.213 13.9623 19.2248 13.6495 19.2248 10.9841C19.2248 8.31876 19.213 8.00589 19.1654 6.95242C19.1219 5.97816 18.9555 5.45143 18.8209 5.09896C18.6427 4.63163 18.4248 4.29896 18.0763 3.95044C17.7278 3.60193 17.3951 3.38806 16.9278 3.20589C16.5753 3.06727 16.0486 2.9049 15.0743 2.86133Z" fill="white"/>
<path fill-rule="evenodd" clip-rule="evenodd" d="M5.91699 10.9802C5.91699 8.14854 8.21402 5.85547 11.0417 5.85547C13.8695 5.85547 16.1665 8.1525 16.1665 10.9802C16.1665 13.8079 13.8695 16.105 11.0417 16.105C8.21402 16.105 5.91699 13.8119 5.91699 10.9802ZM7.71501 10.9802C7.71501 12.8178 9.20412 14.307 11.0417 14.307C12.8794 14.307 14.3685 12.8178 14.3685 10.9802C14.3685 9.1426 12.8794 7.65349 11.0417 7.65349C9.20412 7.65349 7.71501 9.1426 7.71501 10.9802Z" fill="white"/>
<path d="M16.3689 6.85009C17.0294 6.85009 17.5649 6.3146 17.5649 5.65405C17.5649 4.99349 17.0294 4.45801 16.3689 4.45801C15.7083 4.45801 15.1729 4.99349 15.1729 5.65405C15.1729 6.3146 15.7083 6.85009 16.3689 6.85009Z" fill="white"/>
</g>
<defs>
<clipPath id="clip0_1601_114">
<rect width="21" height="21" fill="white" transform="translate(0.5 0.5)"/>
</clipPath>
</defs>
</svg>
